<?xml version="1.0" encoding="UTF-8"?>
<svg width="400" height="218.1" version="1.1" viewBox="0 0 400 218.0952380952381" xmlns="http://www.w3.org/2000/svg">
<defs>
<linearGradient id="b">
	<stop stop-color="#eeca4e" offset="0"/>
	<stop stop-color="#f0f" offset="1"/>
</linearGradient>
<linearGradient id="a" x2="0%" y1="100%">
	<stop stop-color="#71fbf6" offset=".2"/>
	<stop stop-color="#3200ff" offset=".85"/>
</linearGradient>
</defs>
<path d="m331.94 0.356c-0.168 0.197-0.411 0.609-0.54 0.917-0.128 0.308-0.308 0.56-0.398 0.56-0.091 0-0.17 0.132-0.177 0.292s-0.154 0.517-0.327 0.792c-0.345 0.546-1.361 2.588-2.075 4.166-0.248 0.55-0.699 1.525-1.003 2.167-0.647 1.371-1.083 2.563-1.083 2.964 0 0.157-0.057 0.286-0.127 0.286s-0.263 0.506-0.429 1.125-0.359 1.237-0.429 1.375c-0.07 0.137-0.259 0.85-0.42 1.583-0.162 0.734-0.36 1.484-0.441 1.667s-0.223 0.783-0.315 1.333-0.278 1.549-0.413 2.22c-0.282 1.395-0.702 4.653-0.854 6.614-0.056 0.733-0.13 1.633-0.163 2-0.425 4.689 0.045 14.444 0.985 20.416 0.137 0.871 0.324 2.087 0.415 2.703 0.09 0.616 0.216 1.203 0.279 1.304 0.063 0.102 0.182 0.649 0.265 1.214 0.235 1.604 0.421 2.598 0.726 3.863 0.154 0.641 0.348 1.541 0.43 2 0.082 0.458 0.218 0.983 0.303 1.166 0.085 0.184 0.244 0.784 0.353 1.334s0.3 1.337 0.425 1.75c0.125 0.412 0.313 1.087 0.418 1.5 0.105 0.412 0.296 0.996 0.425 1.297s0.234 0.728 0.234 0.948c0 0.221 0.066 0.443 0.148 0.493 0.081 0.05 0.2 0.373 0.265 0.717 0.064 0.344 0.166 0.701 0.225 0.793 0.059 0.093 0.233 0.618 0.386 1.168 0.295 1.06 0.859 2.67 1.226 3.5 0.121 0.275 0.351 0.913 0.509 1.417 0.159 0.504 0.353 0.988 0.432 1.075 0.078 0.087 0.142 0.262 0.142 0.388 0 0.243 0.647 1.973 1.182 3.16 0.175 0.389 0.318 0.752 0.318 0.808s0.106 0.338 0.234 0.627c0.921 2.069 1.1 2.509 1.1 2.712 0 0.127 0.07 0.23 0.155 0.23 0.086 0 0.203 0.169 0.261 0.375 0.245 0.877 0.841 2.191 2.732 6.028 0.953 1.933 2.322 4.576 3.042 5.874 0.72 1.299 1.31 2.442 1.31 2.542 0 0.099 0.07 0.181 0.155 0.181 0.086 0 0.208 0.165 0.272 0.367s0.219 0.47 0.345 0.595c0.125 0.126 0.228 0.336 0.228 0.467s0.07 0.238 0.156 0.238c0.085 0 0.25 0.262 0.366 0.583s0.271 0.583 0.344 0.583c0.074 0 0.134 0.107 0.134 0.238s0.093 0.341 0.208 0.466c0.304 0.332 0.621 0.838 0.733 1.171 0.053 0.161 0.164 0.292 0.245 0.292s0.147 0.078 0.147 0.173c0 0.096 0.14 0.377 0.311 0.625 0.171 0.249 0.544 0.827 0.829 1.285 0.285 0.459 0.58 0.909 0.656 1 0.075 0.092 0.284 0.427 0.462 0.745 0.179 0.318 0.457 0.726 0.617 0.907 0.16 0.18 0.292 0.377 0.292 0.438 0 0.06 0.157 0.29 0.349 0.51s0.658 0.869 1.035 1.442c0.378 0.573 0.745 1.042 0.818 1.042 0.072 0 0.131 0.106 0.131 0.236s0.056 0.261 0.125 0.291c0.069 0.031 0.348 0.393 0.62 0.806 0.543 0.824 0.711 1.043 1.285 1.677 0.213 0.235 0.488 0.618 0.611 0.852s0.405 0.62 0.625 0.858c0.22 0.237 0.401 0.47 0.401 0.517 0 0.046 0.206 0.308 0.458 0.581 0.643 0.697 0.875 0.986 0.875 1.093 0 0.079 0.677 0.851 1.708 1.946 0.161 0.17 0.292 0.35 0.292 0.401 0 0.05 0.17 0.256 0.378 0.458s0.79 0.852 1.292 1.445c0.502 0.592 1.195 1.361 1.538 1.708 0.344 0.347 0.625 0.659 0.625 0.695 0 0.132 4.67 4.769 4.804 4.769 0.077 0 0.234 0.169 0.349 0.375s0.521 0.626 0.903 0.934c0.382 0.307 1.219 1.042 1.861 1.634 1.771 1.633 2.114 1.932 2.835 2.467 0.366 0.271 0.74 0.575 0.832 0.676 0.091 0.101 0.466 0.4 0.833 0.665s0.704 0.528 0.75 0.585c0.046 0.056 0.458 0.356 0.917 0.665 0.458 0.309 0.954 0.697 1.103 0.864 0.148 0.166 0.354 0.302 0.458 0.302s0.189 0.07 0.189 0.155c0 0.086 0.136 0.199 0.304 0.252 0.167 0.053 0.454 0.237 0.638 0.408 0.355 0.331 1.476 1.103 2.203 1.518 0.241 0.137 0.463 0.306 0.493 0.374 0.03 0.067 0.33 0.251 0.667 0.407 0.336 0.156 0.671 0.382 0.745 0.502 0.073 0.119 0.206 0.217 0.295 0.217 0.196 0 1.549 0.866 1.627 1.042 0.03 0.068 0.195 0.125 0.365 0.125s0.358 0.077 0.416 0.173c0.059 0.095 0.457 0.346 0.885 0.559 0.428 0.212 1.416 0.723 2.195 1.136 3.201 1.695 4.471 2.298 4.839 2.298 0.169 0 0.348 0.065 0.396 0.143 0.049 0.078 0.747 0.388 1.552 0.688 0.804 0.299 1.534 0.61 1.621 0.69s0.295 0.146 0.461 0.146 0.432 0.076 0.592 0.168c0.446 0.26 2.345 0.803 2.448 0.701 0.05-0.05 0.091-34.804 0.091-77.23v-77.139h-33.88-33.879l-0.305 0.356" fill="url(#a)"/>
<path d="m8 90.529c-1.675 0.172-4.459 0.585-5.461 0.811-0.391 0.088-0.873 0.16-1.071 0.16-0.199 0-0.61 0.09-0.915 0.2l-0.553 0.2v63.05 63.05h89.477 89.478l0.106-0.773c0.554-4.044-0.212-15.701-1.313-19.977-0.118-0.458-0.302-1.246-0.408-1.75-0.107-0.504-0.292-1.217-0.412-1.583-0.12-0.367-0.311-1.005-0.423-1.417-0.113-0.412-0.311-0.949-0.439-1.192-0.128-0.244-0.233-0.563-0.233-0.711 0-0.147-0.064-0.398-0.142-0.558-0.149-0.303-0.525-1.167-0.816-1.872-0.352-0.854-1.638-3.445-2.111-4.25-0.565-0.964-2.29-3.627-2.429-3.75-0.051-0.046-0.354-0.421-0.673-0.834-2.793-3.618-6.477-7.032-10.495-9.728-0.505-0.338-1.051-0.706-1.214-0.818-0.62-0.425-1.548-0.963-1.828-1.059-0.16-0.055-0.292-0.158-0.292-0.228s-0.131-0.174-0.291-0.23c-0.161-0.056-0.817-0.401-1.459-0.767-1.15-0.655-4.081-2.121-5.625-2.814-1.241-0.558-2.337-1.037-2.791-1.222-0.229-0.093-0.642-0.265-0.917-0.383s-0.763-0.309-1.083-0.425c-0.321-0.115-0.809-0.304-1.084-0.419-0.918-0.387-6.917-2.426-8.5-2.889-2.289-0.671-3.612-1.063-4.25-1.26-0.412-0.128-1.162-0.323-1.666-0.435-0.505-0.111-1.217-0.299-1.584-0.419-0.366-0.119-1.079-0.306-1.583-0.415s-1.254-0.293-1.667-0.408c-0.412-0.115-1.2-0.301-1.75-0.414s-1.337-0.299-1.75-0.414c-0.412-0.115-1.162-0.297-1.666-0.404-1.921-0.408-5.764-1.534-7.25-2.124-0.367-0.145-0.854-0.338-1.084-0.429-0.229-0.09-0.641-0.261-0.916-0.379-0.275-0.117-0.8-0.343-1.167-0.5-1.293-0.555-3.836-1.836-4.054-2.042-0.121-0.114-0.288-0.208-0.372-0.208-0.213 0-2.375-1.297-3.935-2.36-0.381-0.26-0.775-0.473-0.875-0.473-0.099 0-0.181-0.07-0.181-0.156 0-0.085-0.136-0.199-0.304-0.252-0.167-0.053-0.448-0.229-0.625-0.39-0.176-0.162-0.583-0.477-0.904-0.699s-0.621-0.448-0.667-0.501-0.496-0.393-1-0.754c-0.504-0.362-0.991-0.738-1.083-0.836-0.092-0.099-0.542-0.471-1-0.827s-0.957-0.765-1.109-0.908c-0.151-0.144-0.751-0.672-1.333-1.175-2.365-2.043-7.503-7.128-10.53-10.419-1.011-1.1-2.144-2.312-2.517-2.694s-1.24-1.319-1.928-2.083c-0.687-0.763-1.606-1.753-2.041-2.198-0.436-0.446-0.792-0.834-0.792-0.862 0-0.383-9.969-10.279-12.925-12.83-0.531-0.458-1.144-1.002-1.361-1.208-0.218-0.206-0.433-0.375-0.479-0.375-0.045 0-0.248-0.155-0.45-0.344-0.203-0.189-0.781-0.658-1.284-1.042-0.504-0.383-1.061-0.828-1.238-0.987s-0.459-0.333-0.626-0.386-0.304-0.161-0.304-0.239-0.281-0.314-0.625-0.525c-0.343-0.211-0.769-0.516-0.946-0.678-0.176-0.162-0.458-0.339-0.625-0.392s-0.304-0.166-0.304-0.252c0-0.085-0.081-0.155-0.181-0.155-0.099 0-0.531-0.238-0.958-0.529-1.244-0.847-1.553-1.042-2.611-1.648-0.55-0.315-1.129-0.648-1.288-0.74-1.02-0.589-5.182-2.596-6.462-3.116-0.229-0.093-0.641-0.267-0.916-0.387-1.194-0.521-4.236-1.557-6.167-2.1-0.367-0.103-1.004-0.287-1.417-0.409-0.412-0.122-1.35-0.341-2.083-0.488-0.733-0.146-1.596-0.333-1.917-0.415-0.321-0.083-1.183-0.232-1.916-0.333-0.734-0.101-2.084-0.289-3-0.418-3.946-0.557-10.942-0.745-14.417-0.388" fill="url(#b)"/>
</svg>
