<svg xmlns="http://www.w3.org/2000/svg" viewBox="0 0 300 300"><defs><style>.a{fill:#3fc6d4;}.b{fill:#fdfefe;}.c{fill:#fcfefe;}.d{fill:#9ee2e9;}.e{fill:#6ed4de;}.f{fill:#b9eaef;}.g{fill:#81dae3;}.h{fill:#cbeff3;}.i{fill:#40c7d4;}</style></defs><path class="a" d="M84.4,0H217l8.9,1.4c19.9,2.6,37.5,10.2,51.4,25.1s21.7,35.4,22,57.1V216.4c-.3,4.7-.2,9.5-1,14.1-6.6,38.4-34,64.3-72.7,68.9l-5.7.6H78l-3.7-.6c-1.2-.1-2.4-.1-3.5-.3A83.4,83.4,0,0,1,.6,223.4v-2.8c0-1.7.1-3.5.1-5.3V85.4c0-1.8-.1-3.5-.1-5.3V77.3C4.2,37.1,34.2,6.1,74,1.3ZM207.7,129.3v-3.8c-.2-12.6.3-25.3-.6-37.9-1.4-19.5-15.9-32.3-35.4-32.3H90.9c-16.5,0-30.7,11-34.1,27.1-1.2,5.4-1.1,11-1.1,16.5-.1,34.1-.1,68.1,0,102.2a112.9,112.9,0,0,0,.4,13c1.7,16.7,17,30.6,33.7,30.6H209.6A33.8,33.8,0,0,0,243.2,218a38.2,38.2,0,0,0,1.3-9.5c0-15.5.3-31.2-.7-46.7-.8-12.3-7-22.4-18.8-27.6C219.8,131.9,214,131,207.7,129.3Z"/><path class="b" d="M84.4,0,74,1.3C34.2,6.1,4.2,37.1.6,77.3H0V0Z"/><path class="c" d="M299.3,83.6c-.3-21.7-7.1-41-22-57.1S245.8,4,225.9,1.4L217,0h83V83.7Z"/><path class="b" d="M.6,223.4a83.4,83.4,0,0,0,70.2,75.7c1.1.2,2.3.2,3.5.3a1.4,1.4,0,0,0,.2.6H0V223.4H.6Z"/><path class="b" d="M225.6,299.4c38.7-4.6,66.1-30.5,72.7-68.9.8-4.6.7-9.4,1-14.1h.7V300H225.5A1.3,1.3,0,0,1,225.6,299.4Z"/><path class="d" d="M.6,80.1c0,1.8.1,3.5.1,5.3V215.3c0,1.8-.1,3.6-.1,5.3H0V80.1Z"/><path class="e" d="M300,216.3h-.7V83.6h.7Z"/><path class="f" d="M225.6,299.4a1.3,1.3,0,0,0-.1.6h-5.6Z"/><path class="g" d="M74.5,300a1.4,1.4,0,0,1-.2-.6l3.7.6Z"/><path class="h" d="M.6,80.1H0V77.3H.6Z"/><path class="h" d="M0,220.6H.6v2.8H0Z"/><path class="b" d="M207.7,129.3c6.3,1.7,12.1,2.6,17.3,4.9,11.8,5.2,18,15.3,18.8,27.6,1,15.5.7,31.2.7,46.7a38.2,38.2,0,0,1-1.3,9.5,33.8,33.8,0,0,1-33.6,26.7H89.8c-16.7,0-32-13.9-33.7-30.6a112.9,112.9,0,0,1-.4-13c-.1-34.1-.1-68.1,0-102.2,0-5.5-.1-11.1,1.1-16.5,3.4-16.1,17.6-27.1,34.1-27.1h80.8c19.5,0,34,12.8,35.4,32.3.9,12.6.4,25.3.6,37.9Zm-58.1,72.1H185c8.8,0,14.7-5.8,14.7-14.2s-6-14.1-14.8-14.1H114.8a14.2,14.2,0,1,0,.1,28.3ZM131.4,100h-17a14.2,14.2,0,0,0-.2,28.4h34a13.7,13.7,0,0,0,14-14.2c0-8.1-6-14-14.2-14.1Z"/><path class="a" d="M149.6,201.4H114.9a14.2,14.2,0,1,1-.1-28.3h70.1c8.8,0,14.7,5.7,14.8,14.1s-5.9,14.2-14.7,14.2Z"/><path class="i" d="M131.4,100H148c8.2.1,14.2,6,14.2,14.1a13.7,13.7,0,0,1-14,14.2h-34a14.2,14.2,0,0,1,.2-28.4Z"/></svg>